# xmcd CD database file
#
# Track frame offsets:
#	150
#	20412
#	38488
#	63880
#	86044
#	119405
#	169379
#	204325
#	217306
#
# Disc length: 3179 seconds
#
# Revision: 1
# Processed by: cddbd v1.4b42PL0 Copyright (c) Steve Scherf et al.
# Submitted via: CDex 1.40Beta5
#
DISCID=7c0c6909
DTITLE=Eric Clapton - Reptile at Ahoy 2001 [CD2)
DYEAR=2001
DGENRE=Blues
TTITLE0=Travellin' Light
TTITLE1=Hoochie Coochie Man
TTITLE2=Five Long Years
TTITLE3=Cocaine
TTITLE4=Wonderful Tonight
TTITLE5=Layla
TTITLE6=Sunshine Of Your Love
TTITLE7=Introduction Of The Band
TTITLE8=Somewhere Over The Rainbow
EXTD=YEAR: 2001 ID3G:   0
EXTT0=
EXTT1=
EXTT2=
EXTT3=
EXTT4=
EXTT5=
EXTT6=
EXTT7=
EXTT8=
PLAYORDER=
